<svg width="50" height="50" viewBox="0 0 50 50" fill="none" xmlns="http://www.w3.org/2000/svg">
<path d="M34.6366 5C30.7275 5.00604 27.0656 6.91266 24.8184 10.1112C22.5712 6.91266 18.9092 5.00604 15.0001 5C8.60729 5 3 10.9479 3 17.7274C3 24.3347 6.73086 31.1398 13.7899 37.4076C17.0605 40.3061 20.6482 42.8256 24.4846 44.919C24.6941 45.027 24.9427 45.027 25.1522 44.919C28.9871 42.8256 32.5738 40.3057 35.8433 37.4076C42.9059 31.1398 46.6367 24.3347 46.6367 17.7274C46.6367 10.9479 41.0295 5 34.6366 5ZM24.8184 43.446C22.1472 41.9719 4.45456 31.6735 4.45456 17.7274C4.45456 11.7224 9.3818 6.45456 15.0001 6.45456C18.8062 6.46131 22.3148 8.51459 24.1848 11.83C24.3248 12.0437 24.563 12.1723 24.8184 12.1723C25.0737 12.1723 25.312 12.0437 25.4519 11.83C27.3219 8.51459 30.8305 6.46131 34.6366 6.45456C40.2549 6.45456 45.1822 11.7224 45.1822 17.7274C45.1822 31.6735 27.4896 41.9719 24.8184 43.446Z" fill="#121212"/>
</svg>
