<svg width="189" height="63" viewBox="0 0 189 63" fill="none" xmlns="http://www.w3.org/2000/svg">
<path d="M4.27 12.53L4.97 15.82C4.97 16.6133 4.69 17.2667 4.13 17.78C3.57 18.2933 2.91667 18.55 2.17 18.55C1.42333 18.55 0.863333 18.2 0.49 17.5C0.163333 16.8 0 16.03 0 15.19C0 12.67 1.07333 10.4067 3.22 8.4C5.41333 6.34667 7.88667 5.32 10.64 5.32H11.06C11.9933 1.77333 13.3933 0 15.26 0C15.82 0 16.1 0.746667 16.1 2.24C16.1 2.52 16.03 3.64 15.89 5.6C16.59 5.69334 17.4067 5.81 18.34 5.95C20.5333 6.27667 22.3533 6.44 23.8 6.44C25.2933 6.44 26.7867 6.20667 28.28 5.74C29.82 5.22667 30.8467 4.97 31.36 4.97C32.6667 4.97 33.32 5.64667 33.32 7C33.32 8.30667 32.62 9.31 31.22 10.01C29.82 10.6633 27.79 10.99 25.13 10.99C22.47 10.99 19.2267 10.3833 15.4 9.17C14.84 12.39 14.5133 14.8167 14.42 16.45C14.3267 18.0833 14.2333 20.51 14.14 23.73C16.1 23.6367 18.8067 23.59 22.26 23.59C22.8667 23.59 23.38 23.8233 23.8 24.29C24.2667 24.7567 24.5 25.2467 24.5 25.76C24.5 26.2733 24.3367 26.6933 24.01 27.02C23.6833 27.3467 23.3333 27.51 22.96 27.51L14.07 27.02C13.8833 31.5933 13.72 34.6967 13.58 36.33C13.4867 37.9633 13.0433 39.48 12.25 40.88C11.4567 42.28 10.5233 42.98 9.45 42.98C8.84333 42.98 8.16667 42.6533 7.42 42C6.72 41.3933 6.37 40.81 6.37 40.25C6.37 39.69 6.44 39.27 6.58 38.99C6.76667 38.6633 6.95333 38.36 7.14 38.08C7.37333 37.7533 7.53667 37.4967 7.63 37.31C8.19 36.0967 8.70333 32.76 9.17 27.3L6.44 27.65C6.06667 27.65 5.76333 27.5333 5.53 27.3C5.29667 27.02 5.18 26.7167 5.18 26.39C5.18 26.0167 5.25 25.69 5.39 25.41C5.53 25.13 5.81 24.92 6.23 24.78C6.65 24.5933 6.95333 24.4767 7.14 24.43C7.88667 24.2433 8.63333 24.15 9.38 24.15C9.47333 23.03 9.59 20.6033 9.73 16.87C9.91667 13.1367 10.1733 10.22 10.5 8.12C10.22 8.07333 9.8 8.05 9.24 8.05C5.92667 8.05 4.27 9.54333 4.27 12.53Z" fill="#121212"/>
<path d="M49.9926 25.41C51.8592 24.8033 53.1426 24.29 53.8426 23.87C54.5892 23.4033 55.1492 23.0533 55.5226 22.82L56.3626 22.33C56.5959 22.19 56.7826 22.12 56.9226 22.12C57.2959 22.12 57.4826 22.33 57.4826 22.75C57.4826 23.17 56.7592 23.9167 55.3126 24.99C53.8659 26.0167 52.0692 26.95 49.9226 27.79C49.5959 31.71 48.3592 34.8833 46.2126 37.31C44.0659 39.7367 41.0092 40.95 37.0426 40.95C34.1492 40.95 31.9326 39.8067 30.3926 37.52C28.8526 35.1867 28.0826 32.48 28.0826 29.4C28.0826 26.2733 28.9926 23.3333 30.8126 20.58C32.6792 17.8267 35.0592 16.45 37.9526 16.45C39.2592 15.5167 40.7992 15.05 42.5726 15.05C44.3926 15.05 46.0726 16.0067 47.6126 17.92C49.1526 19.8333 49.9459 22.33 49.9926 25.41ZM45.4426 28.98L42.9226 29.12C40.7759 29.12 38.9559 28.49 37.4626 27.23C35.9692 25.9233 35.2226 24.5 35.2226 22.96C35.2226 21.42 35.4792 20.09 35.9926 18.97C33.9859 20.5567 32.9826 23.6833 32.9826 28.35C32.9826 30.59 33.4492 32.7367 34.3826 34.79C35.3159 36.7967 36.7859 37.8 38.7926 37.8C40.7992 37.8 42.3626 36.96 43.4826 35.28C44.6026 33.5533 45.2559 31.4533 45.4426 28.98ZM41.1026 17.36C40.3559 17.36 39.7726 17.71 39.3526 18.41C38.9326 19.0633 38.7226 19.7867 38.7226 20.58C38.7226 22.3067 39.3059 23.7067 40.4726 24.78C41.6859 25.8533 43.0859 26.39 44.6726 26.39H45.5126C45.4192 24.1033 45.0226 22.0267 44.3226 20.16C43.6692 18.2933 42.5959 17.36 41.1026 17.36Z" fill="#121212"/>
<path d="M70.3806 37.03C71.7806 37.03 74.0206 33.6233 77.1006 26.81C77.474 26.0167 77.7773 25.34 78.0106 24.78C78.244 24.1733 78.454 23.7067 78.6406 23.38C78.9206 22.7267 79.1773 22.4 79.4106 22.4C79.6906 22.4 79.8306 22.5867 79.8306 22.96C79.8306 24.3133 79.1306 26.46 77.7306 29.4C74.1373 37.1 71.2206 40.95 68.9806 40.95C67.3006 40.95 66.204 40.5533 65.6906 39.76C65.1773 38.92 64.1273 36.7733 62.5406 33.32C61.1406 35.7933 59.9273 37.6833 58.9006 38.99C57.9206 40.2967 57.0106 40.95 56.1706 40.95C55.3306 40.95 54.6773 40.8567 54.2106 40.67C53.744 40.4833 53.464 40.2967 53.3706 40.11C53.2306 39.8767 53.1606 39.5967 53.1606 39.27C53.1606 38.9433 53.464 38.5 54.0706 37.94C56.684 35.56 59.0173 32.9933 61.0706 30.24C60.4173 28.98 59.554 27.6033 58.4806 26.11C57.4073 24.57 56.5206 23.31 55.8206 22.33C55.1673 21.35 54.8406 20.4633 54.8406 19.67C54.8406 18.83 55.144 17.8033 55.7506 16.59C56.404 15.33 57.1506 14.7 57.9906 14.7C58.8773 14.7 59.5073 15.12 59.8806 15.96C60.3006 16.8 60.5106 17.6633 60.5106 18.55C60.9306 19.25 62.144 21.6767 64.1506 25.83C64.8506 24.71 65.714 23.1933 66.7406 21.28C67.7673 19.32 68.5606 17.92 69.1206 17.08C69.6806 16.1933 70.1473 15.75 70.5206 15.75C71.3606 15.75 71.8973 15.89 72.1306 16.17C72.4106 16.45 72.5506 16.87 72.5506 17.43C72.5506 17.99 72.3173 18.5267 71.8506 19.04C71.4306 19.5533 70.9406 20.0433 70.3806 20.51C69.8206 20.93 69.2606 21.5133 68.7006 22.26C68.1873 23.0067 67.0673 24.99 65.3406 28.21C68.1873 34.09 69.8673 37.03 70.3806 37.03Z" fill="#121212"/>
<path d="M91.7591 29.89C90.3124 33.7167 88.9591 36.5167 87.6991 38.29C86.4857 40.0633 84.8757 40.95 82.8691 40.95C80.8624 40.95 79.1591 40.0867 77.7591 38.36C76.4057 36.6333 75.7291 33.88 75.7291 30.1C75.7291 26.32 76.7791 22.9833 78.8791 20.09C81.0257 17.1967 83.8257 15.75 87.2791 15.75C87.9791 15.75 88.8191 16.0533 89.7991 16.66C90.7791 17.22 91.6424 17.92 92.3891 18.76C92.5291 18.2933 93.2057 17.57 94.4191 16.59C95.6324 15.5633 96.5657 15.05 97.2191 15.05C97.9191 15.05 98.2691 16.0533 98.2691 18.06C98.2691 20.0667 97.8491 21.84 97.0091 23.38C96.5424 26.5067 96.2857 29.4 96.2391 32.06C100.812 26.2733 103.239 23.2167 103.519 22.89C103.846 22.5633 104.126 22.4 104.359 22.4C104.826 22.4 105.059 22.6333 105.059 23.1C105.059 23.38 104.966 23.6833 104.779 24.01C103.286 26.2033 100.346 30.0533 95.9591 35.56C95.6791 41.1133 95.4924 44.8933 95.3991 46.9C95.1657 52.8267 94.3257 56.98 92.8791 59.36C91.4791 61.7867 88.9591 63 85.3191 63C83.7324 63 82.2391 62.51 80.8391 61.53C79.4857 60.5967 78.8091 58.94 78.8091 56.56C78.8091 54.2267 79.6957 51.8233 81.4691 49.35C83.2891 46.8767 86.5791 43.0733 91.3391 37.94L91.7591 29.89ZM86.8591 18.27C85.5524 18.27 84.1524 19.2967 82.6591 21.35C81.2124 23.3567 80.4891 25.69 80.4891 28.35C80.4891 30.9633 80.8624 33.11 81.6091 34.79C82.4024 36.4233 83.3824 37.24 84.5491 37.24C85.7157 37.24 86.8357 36.2833 87.9091 34.37C88.9824 32.4567 90.3591 29.1667 92.0391 24.5C92.1324 22.9133 92.1791 21.91 92.1791 21.49C91.8057 20.79 91.0357 20.09 89.8691 19.39C88.7024 18.6433 87.6991 18.27 86.8591 18.27ZM91.1291 41.23C85.8091 46.97 83.1491 51.5667 83.1491 55.02C83.1491 56.6067 83.4291 57.9133 83.9891 58.94C84.5491 59.9667 85.3191 60.48 86.2991 60.48C87.7924 60.48 88.8424 59.6633 89.4491 58.03C90.0557 56.3967 90.4991 53.0833 90.7791 48.09L91.1291 41.23Z" fill="#121212"/>
<path d="M107.864 22.33L111.714 21.91C112.087 21.91 112.414 22.12 112.694 22.54C112.974 22.96 113.114 23.4033 113.114 23.87C113.114 24.3367 112.951 25.9233 112.624 28.63C112.344 31.3367 112.204 33.4833 112.204 35.07C112.204 36.61 112.344 37.38 112.624 37.38C113.417 37.3333 114.514 36.3533 115.914 34.44C117.314 32.48 118.691 29.9833 120.044 26.95C121.444 23.9167 122.284 22.4 122.564 22.4C122.891 22.4 123.054 22.5867 123.054 22.96C123.054 24.2667 122.377 26.3433 121.024 29.19C117.337 37.03 114.234 40.95 111.714 40.95C109.894 40.95 108.517 40.5767 107.584 39.83C107.257 39.5033 107.094 37.4733 107.094 33.74C107.094 30.0067 107.491 26.81 108.284 24.15C105.577 24.15 103.687 23.2867 102.614 21.56C102.054 20.6733 101.774 19.67 101.774 18.55C101.774 17.43 102.007 16.45 102.474 15.61C102.941 14.77 103.594 14.35 104.434 14.35C105.321 14.35 106.114 14.8167 106.814 15.75C107.561 16.6367 107.934 17.64 107.934 18.76C107.934 19.88 107.607 21 106.954 22.12C107.141 22.26 107.444 22.33 107.864 22.33Z" fill="#121212"/>
<path d="M139.286 40.95C137.466 40.95 136.089 40.5767 135.156 39.83C134.829 39.5033 134.666 38.6867 134.666 37.38C134.666 36.0267 134.712 34.23 134.806 31.99C133.592 35.0233 132.379 37.2867 131.166 38.78C129.999 40.2267 128.482 40.95 126.616 40.95C124.749 40.95 123.116 40.0867 121.716 38.36C120.316 36.5867 119.616 33.8333 119.616 30.1C119.616 26.32 120.666 22.9833 122.766 20.09C124.912 17.1967 127.712 15.75 131.166 15.75C132.659 15.75 134.339 16.73 136.206 18.69C136.579 18.1767 137.232 17.57 138.166 16.87C139.146 16.1233 139.962 15.75 140.616 15.75C141.316 15.75 141.666 16.6367 141.666 18.41C141.666 18.8767 141.526 19.7867 141.246 21.14C141.012 22.4933 140.732 23.4733 140.406 24.08C139.986 25.1533 139.776 28.9567 139.776 35.49C139.776 36.75 139.916 37.38 140.196 37.38C140.989 37.3333 142.086 36.3533 143.486 34.44C144.886 32.48 146.262 29.9833 147.616 26.95C149.016 23.9167 149.856 22.4 150.136 22.4C150.462 22.4 150.626 22.5867 150.626 22.96C150.626 24.2667 149.949 26.3433 148.596 29.19C144.909 37.03 141.806 40.95 139.286 40.95ZM130.746 18.55C129.439 18.55 128.039 19.53 126.546 21.49C125.099 23.4033 124.376 25.6667 124.376 28.28C124.376 30.8933 124.749 33.04 125.496 34.72C126.289 36.4 127.316 37.24 128.576 37.24C130.116 37.24 132.379 33.39 135.366 25.69C135.412 25.3167 135.459 24.6867 135.506 23.8C135.599 22.8667 135.669 22.1667 135.716 21.7C135.296 20.9533 134.549 20.2533 133.476 19.6C132.449 18.9 131.539 18.55 130.746 18.55Z" fill="#121212"/>
<path d="M152.223 36.82L152.293 38.99C152.293 40.2967 151.919 40.95 151.173 40.95C150.053 40.95 148.979 40.81 147.953 40.53C146.926 40.2033 146.413 39.7833 146.413 39.27C146.413 38.71 146.529 36.8667 146.763 33.74C147.043 30.5667 147.183 28.1867 147.183 26.6V22.47C147.183 20.23 147.416 18.8767 147.883 18.41C148.349 17.9433 149.166 17.2667 150.333 16.38C151.546 15.4933 152.409 15.05 152.923 15.05C153.483 15.05 153.833 15.1433 153.973 15.33C154.113 15.5167 154.183 15.8667 154.183 16.38C154.183 18.8533 153.716 21.1867 152.783 23.38C152.549 26.04 152.433 27.8833 152.433 28.91C154.906 24.29 156.633 21.2567 157.613 19.81C159.339 17.1033 160.903 15.75 162.303 15.75C163.189 15.75 164.006 16.1 164.753 16.8C165.546 17.5 165.943 18.3633 165.943 19.39C165.943 20.4167 165.919 21.3967 165.873 22.33C165.873 23.2167 165.849 23.9167 165.803 24.43C165.756 24.9433 165.733 25.27 165.733 25.41C165.919 25.0367 166.713 23.9867 168.113 22.26C169.513 20.5333 170.446 19.4133 170.913 18.9C171.426 18.3867 171.963 17.8733 172.523 17.36C173.596 16.2867 174.553 15.75 175.393 15.75C176.279 15.75 177.096 16.0767 177.843 16.73C178.636 17.3833 179.033 18.2 179.033 19.18C179.033 21.2333 178.799 24.2667 178.333 28.28C177.913 32.2467 177.703 34.7667 177.703 35.84C177.703 36.8667 177.843 37.38 178.123 37.38C178.916 37.3333 180.013 36.3533 181.413 34.44C182.813 32.48 184.189 29.9833 185.543 26.95C186.943 23.9167 187.783 22.4 188.063 22.4C188.389 22.4 188.553 22.5867 188.553 22.96C188.553 24.2667 187.876 26.3433 186.523 29.19C182.836 37.03 179.733 40.95 177.213 40.95C175.626 40.95 174.366 40.5767 173.433 39.83C173.106 39.5033 172.943 38.6633 172.943 37.31C172.943 35.91 173.059 33.67 173.293 30.59C173.573 27.4633 173.713 25.13 173.713 23.59C173.713 22.05 173.456 21.28 172.943 21.28C172.336 21.28 171.006 22.3067 168.953 24.36C166.946 26.4133 165.873 27.86 165.733 28.7C165.453 30.2867 165.313 33.7167 165.313 38.99C165.313 40.2967 164.963 40.95 164.263 40.95C163.189 40.95 162.163 40.81 161.183 40.53C160.249 40.2033 159.783 39.7833 159.783 39.27C159.783 38.71 159.923 36.4 160.203 32.34C160.483 28.28 160.623 25.4333 160.623 23.8C160.623 22.12 160.343 21.28 159.783 21.28C159.269 21.28 157.986 22.89 155.933 26.11C153.879 29.2833 152.736 31.5 152.503 32.76C152.316 34.02 152.223 35.3733 152.223 36.82Z" fill="#121212"/>
</svg>
