<svg width="50" height="50" viewBox="0 0 50 50" fill="none" xmlns="http://www.w3.org/2000/svg">
<path d="M47.3225 6.11884C46.9208 5.41904 46.1993 5.00134 45.3924 5.00134L4.22914 5C3.27353 5 2.44997 5.5821 2.13116 6.483C1.81227 7.3839 2.08626 8.35439 2.82909 8.95556L19.2422 22.2379L22.4346 43.1094C22.579 44.054 23.279 44.78 24.2176 44.959C24.3621 44.9866 24.5058 45 24.6477 45C25.4284 44.9999 26.1486 44.5935 26.5564 43.8952L47.3143 8.34922C47.721 7.65245 47.7241 6.81864 47.3225 6.11884ZM25.4021 43.2213C25.108 43.7248 24.6126 43.6738 24.4678 43.6463C24.323 43.6188 23.8438 43.4839 23.7556 42.9075L20.5934 22.2329L22.7509 20.9944C23.071 20.8106 23.1816 20.4022 22.9978 20.0822C22.8141 19.7621 22.4058 19.6516 22.0856 19.8353L19.928 21.0738L3.66985 7.91664C3.21659 7.5499 3.34187 7.06795 3.39105 6.92895C3.44024 6.78995 3.64606 6.33652 4.22923 6.33652L45.3924 6.33785C45.4521 6.33785 45.5099 6.34534 45.5665 6.35639L24.5969 18.3936C24.2769 18.5773 24.1663 18.9858 24.35 19.3059C24.4735 19.5211 24.6987 19.6415 24.9302 19.6415C25.0431 19.6415 25.1574 19.6129 25.2623 19.5527L46.2317 7.51559C46.2126 7.57003 46.19 7.62376 46.16 7.67517L25.4021 43.2213Z" fill="#121212"/>
</svg>
